<mxfile host="Electron" agent="Mozilla/5.0 (Windows NT 10.0; Win64; x64) AppleWebKit/537.36 (KHTML, like Gecko) draw.io/26.0.9 Chrome/128.0.6613.186 Electron/32.2.5 Safari/537.36" version="26.0.9">
  <diagram id="C5RBs43oDa-KdzZeNtuy" name="Page-1">
    <mxGraphModel dx="656" dy="603" grid="1" gridSize="10" guides="1" tooltips="1" connect="1" arrows="1" fold="1" page="1" pageScale="1" pageWidth="827" pageHeight="1169" math="0" shadow="0">
      <root>
        <mxCell id="WIyWlLk6GJQsqaUBKTNV-0" />
        <mxCell id="WIyWlLk6GJQsqaUBKTNV-1" parent="WIyWlLk6GJQsqaUBKTNV-0" />
        <mxCell id="WIyWlLk6GJQsqaUBKTNV-2" value="" style="rounded=0;html=1;jettySize=auto;orthogonalLoop=1;fontSize=11;endArrow=block;endFill=0;endSize=8;strokeWidth=1;shadow=0;labelBackgroundColor=none;edgeStyle=orthogonalEdgeStyle;" parent="WIyWlLk6GJQsqaUBKTNV-1" source="WIyWlLk6GJQsqaUBKTNV-3" target="WIyWlLk6GJQsqaUBKTNV-6" edge="1">
          <mxGeometry relative="1" as="geometry" />
        </mxCell>
        <mxCell id="WIyWlLk6GJQsqaUBKTNV-3" value="Create &quot;What month is it? (1-12)&quot; Welcome message" style="rounded=1;whiteSpace=wrap;html=1;fontSize=12;glass=0;strokeWidth=1;shadow=0;" parent="WIyWlLk6GJQsqaUBKTNV-1" vertex="1">
          <mxGeometry x="160" y="80" width="120" height="40" as="geometry" />
        </mxCell>
        <mxCell id="WIyWlLk6GJQsqaUBKTNV-6" value="Define the variables" style="rhombus;whiteSpace=wrap;html=1;shadow=0;fontFamily=Helvetica;fontSize=12;align=center;strokeWidth=1;spacing=6;spacingTop=-4;" parent="WIyWlLk6GJQsqaUBKTNV-1" vertex="1">
          <mxGeometry x="170" y="170" width="100" height="80" as="geometry" />
        </mxCell>
        <mxCell id="WIyWlLk6GJQsqaUBKTNV-10" value="Promt user for hit target" style="rhombus;whiteSpace=wrap;html=1;shadow=0;fontFamily=Helvetica;fontSize=12;align=center;strokeWidth=1;spacing=6;spacingTop=-4;" parent="WIyWlLk6GJQsqaUBKTNV-1" vertex="1">
          <mxGeometry x="130" y="290" width="140" height="80" as="geometry" />
        </mxCell>
        <mxCell id="4LPjxBiCUutT5iZ8q3XW-2" value="" style="endArrow=classic;html=1;rounded=0;exitX=0.452;exitY=0.84;exitDx=0;exitDy=0;exitPerimeter=0;entryX=0.591;entryY=0.11;entryDx=0;entryDy=0;entryPerimeter=0;" edge="1" parent="WIyWlLk6GJQsqaUBKTNV-1" source="WIyWlLk6GJQsqaUBKTNV-6" target="WIyWlLk6GJQsqaUBKTNV-10">
          <mxGeometry width="50" height="50" relative="1" as="geometry">
            <mxPoint x="200" y="340" as="sourcePoint" />
            <mxPoint x="250" y="290" as="targetPoint" />
          </mxGeometry>
        </mxCell>
        <mxCell id="4LPjxBiCUutT5iZ8q3XW-3" value="Write if, elif and else for all of the seasons and their numbers" style="whiteSpace=wrap;html=1;aspect=fixed;" vertex="1" parent="WIyWlLk6GJQsqaUBKTNV-1">
          <mxGeometry x="190" y="430" width="120" height="120" as="geometry" />
        </mxCell>
        <mxCell id="4LPjxBiCUutT5iZ8q3XW-4" value="" style="endArrow=classic;html=1;rounded=0;entryX=0.377;entryY=-0.033;entryDx=0;entryDy=0;entryPerimeter=0;exitX=0.311;exitY=0.88;exitDx=0;exitDy=0;exitPerimeter=0;" edge="1" parent="WIyWlLk6GJQsqaUBKTNV-1" source="WIyWlLk6GJQsqaUBKTNV-10" target="4LPjxBiCUutT5iZ8q3XW-3">
          <mxGeometry width="50" height="50" relative="1" as="geometry">
            <mxPoint x="190" y="360" as="sourcePoint" />
            <mxPoint x="250" y="290" as="targetPoint" />
            <Array as="points">
              <mxPoint x="190" y="390" />
              <mxPoint x="210" y="410" />
            </Array>
          </mxGeometry>
        </mxCell>
        <mxCell id="4LPjxBiCUutT5iZ8q3XW-5" value="Set result string to&amp;nbsp;&lt;div&gt;&quot;The current season is...&quot;&lt;/div&gt;" style="shape=hexagon;perimeter=hexagonPerimeter2;whiteSpace=wrap;html=1;fixedSize=1;" vertex="1" parent="WIyWlLk6GJQsqaUBKTNV-1">
          <mxGeometry x="330" y="320" width="120" height="80" as="geometry" />
        </mxCell>
        <mxCell id="4LPjxBiCUutT5iZ8q3XW-6" value="" style="endArrow=classic;html=1;rounded=0;exitX=1.03;exitY=0.347;exitDx=0;exitDy=0;exitPerimeter=0;entryX=0.31;entryY=1.055;entryDx=0;entryDy=0;entryPerimeter=0;" edge="1" parent="WIyWlLk6GJQsqaUBKTNV-1" source="4LPjxBiCUutT5iZ8q3XW-3" target="4LPjxBiCUutT5iZ8q3XW-5">
          <mxGeometry width="50" height="50" relative="1" as="geometry">
            <mxPoint x="330" y="470" as="sourcePoint" />
            <mxPoint x="380" y="420" as="targetPoint" />
            <Array as="points">
              <mxPoint x="370" y="460" />
            </Array>
          </mxGeometry>
        </mxCell>
        <mxCell id="4LPjxBiCUutT5iZ8q3XW-7" value="Summer" style="ellipse;whiteSpace=wrap;html=1;" vertex="1" parent="WIyWlLk6GJQsqaUBKTNV-1">
          <mxGeometry x="280" y="240" width="66" height="40" as="geometry" />
        </mxCell>
        <mxCell id="4LPjxBiCUutT5iZ8q3XW-8" value="Spring" style="ellipse;whiteSpace=wrap;html=1;" vertex="1" parent="WIyWlLk6GJQsqaUBKTNV-1">
          <mxGeometry x="340" y="190" width="74" height="40" as="geometry" />
        </mxCell>
        <mxCell id="4LPjxBiCUutT5iZ8q3XW-9" value="Winter" style="ellipse;whiteSpace=wrap;html=1;" vertex="1" parent="WIyWlLk6GJQsqaUBKTNV-1">
          <mxGeometry x="414" y="230" width="80" height="40" as="geometry" />
        </mxCell>
        <mxCell id="4LPjxBiCUutT5iZ8q3XW-10" value="Fall" style="ellipse;whiteSpace=wrap;html=1;" vertex="1" parent="WIyWlLk6GJQsqaUBKTNV-1">
          <mxGeometry x="460" y="290" width="80" height="40" as="geometry" />
        </mxCell>
        <mxCell id="4LPjxBiCUutT5iZ8q3XW-11" value="" style="endArrow=classic;html=1;rounded=0;exitX=0.917;exitY=0.865;exitDx=0;exitDy=0;exitPerimeter=0;entryX=0.5;entryY=1;entryDx=0;entryDy=0;" edge="1" parent="WIyWlLk6GJQsqaUBKTNV-1" source="4LPjxBiCUutT5iZ8q3XW-5" target="4LPjxBiCUutT5iZ8q3XW-10">
          <mxGeometry width="50" height="50" relative="1" as="geometry">
            <mxPoint x="450" y="400" as="sourcePoint" />
            <mxPoint x="500" y="350" as="targetPoint" />
            <Array as="points">
              <mxPoint x="510" y="390" />
            </Array>
          </mxGeometry>
        </mxCell>
        <mxCell id="4LPjxBiCUutT5iZ8q3XW-12" value="" style="endArrow=classic;html=1;rounded=0;" edge="1" parent="WIyWlLk6GJQsqaUBKTNV-1">
          <mxGeometry width="50" height="50" relative="1" as="geometry">
            <mxPoint x="400" y="320" as="sourcePoint" />
            <mxPoint x="450" y="270" as="targetPoint" />
          </mxGeometry>
        </mxCell>
        <mxCell id="4LPjxBiCUutT5iZ8q3XW-13" value="" style="endArrow=classic;html=1;rounded=0;exitX=-0.01;exitY=0.315;exitDx=0;exitDy=0;exitPerimeter=0;entryX=0.327;entryY=1.03;entryDx=0;entryDy=0;entryPerimeter=0;" edge="1" parent="WIyWlLk6GJQsqaUBKTNV-1" source="4LPjxBiCUutT5iZ8q3XW-5" target="4LPjxBiCUutT5iZ8q3XW-7">
          <mxGeometry width="50" height="50" relative="1" as="geometry">
            <mxPoint x="280" y="340" as="sourcePoint" />
            <mxPoint x="330" y="290" as="targetPoint" />
            <Array as="points">
              <mxPoint x="300" y="320" />
            </Array>
          </mxGeometry>
        </mxCell>
        <mxCell id="4LPjxBiCUutT5iZ8q3XW-14" value="" style="endArrow=classic;html=1;rounded=0;entryX=0.5;entryY=1;entryDx=0;entryDy=0;" edge="1" parent="WIyWlLk6GJQsqaUBKTNV-1" target="4LPjxBiCUutT5iZ8q3XW-8">
          <mxGeometry width="50" height="50" relative="1" as="geometry">
            <mxPoint x="350" y="320" as="sourcePoint" />
            <mxPoint x="400" y="270" as="targetPoint" />
            <Array as="points">
              <mxPoint x="390" y="280" />
            </Array>
          </mxGeometry>
        </mxCell>
      </root>
    </mxGraphModel>
  </diagram>
</mxfile>
